<?xml version="1.0" encoding="utf-8"?>
<!-- Generator: Adobe Illustrator 27.4.1, SVG Export Plug-In . SVG Version: 6.00 Build 0)  -->
<svg version="1.1" id="Layer_1" xmlns="http://www.w3.org/2000/svg" xmlns:xlink="http://www.w3.org/1999/xlink" x="0px" y="0px"
	 viewBox="0 0 140 50" style="enable-background:new 0 0 140 50;" xml:space="preserve">
<style type="text/css">
	.st0{fill:#00A594;}
	.st1{fill:#63C8BE;}
	.st2{fill:#98DAD4;}
</style>
<g>
	<g>
		<path class="st0" d="M103.02,18.76v18.5c0,0.72-0.59,1.31-1.31,1.31h-9.87c-0.72,0-1.31-0.59-1.31-1.31v-18.5H103.02z"/>
		<path class="st1" d="M103.02,12.75v4.39H90.53v-4.39c0-0.73,0.59-1.33,1.31-1.33h9.87C102.43,11.42,103.02,12.02,103.02,12.75z"/>
	</g>
	<g>
		<path class="st0" d="M125.74,18.76v18.5c0,0.72-0.59,1.31-1.31,1.31h-9.86c-0.72,0-1.31-0.59-1.31-1.31v-18.5H125.74z"/>
		<rect x="113.26" y="11.42" class="st1" width="12.48" height="5.72"/>
		<path class="st2" d="M133.35,12.75v3.07c0,0.73-0.59,1.33-1.31,1.33h-4.72v-5.72h4.72C132.76,11.42,133.35,12.02,133.35,12.75z"/>
		<path class="st2" d="M111.68,11.42v5.72h-4.73c-0.72,0-1.31-0.59-1.31-1.33v-3.07c0-0.73,0.59-1.33,1.31-1.33H111.68z"/>
	</g>
	<g>
		<path class="st2" d="M31.82,19.3c0,4.34-3.52,7.87-7.87,7.87h-3.48V11.42h3.48C28.3,11.42,31.82,14.95,31.82,19.3z"/>
		<path class="st1" d="M18.89,11.42v15.74H6.65V12.74c0-0.72,0.59-1.31,1.31-1.31H18.89z"/>
		<path class="st0" d="M18.89,28.74v8.45c0,0.72-0.59,1.31-1.31,1.31H7.97c-0.72,0-1.31-0.59-1.31-1.31v-8.45H18.89z"/>
	</g>
	<g>
		<g>
			<path class="st0" d="M44.78,12.78v11.73h-9.55V12.78c0-0.75,0.59-1.36,1.31-1.36h6.92C44.19,11.42,44.78,12.03,44.78,12.78z"/>
			<path class="st1" d="M60.39,26.09c-0.58,16.66-24.58,16.64-25.16,0H60.39z"/>
		</g>
		<path class="st2" d="M60.39,12.78v11.73h-9.55V12.78c0-0.75,0.59-1.36,1.31-1.36h6.92C59.8,11.42,60.39,12.03,60.39,12.78z"/>
	</g>
	<g>
		<path class="st1" d="M85.27,25c-1.26,1.77-3.33,2.93-5.67,2.93H64.23v-5.86H79.6C81.94,22.07,84.01,23.23,85.27,25z"/>
		<polygon class="st0" points="76.4,25.36 76.4,25.36 76.4,25.36 		"/>
		<path class="st2" d="M86.13,23.54c0.79-1.23,1.25-2.68,1.25-4.25c0-4.35-3.53-7.87-7.87-7.87H65.54c-0.72,0-1.31,0.59-1.31,1.31
			v7.75h15.26c0.33,0,0.66,0.02,0.99,0.06C82.67,20.77,84.7,21.85,86.13,23.54z"/>
		<path class="st0" d="M80.98,29.39c-0.48,0.09-0.98,0.14-1.49,0.14H64.23v7.73c0,0.72,0.59,1.31,1.31,1.31h13.97
			c4.34,0,7.87-3.52,7.87-7.87c0-1.56-0.46-3.02-1.25-4.25C84.81,28.02,82.98,29.06,80.98,29.39z"/>
	</g>
</g>
</svg>
